#Comment line ignore any data following # character 
#Hierarchical Translation and Rotation (.htr) file 
[Header]	
#Header keywords are followed by a single value 
FileType HTR		#Single word string
DataType HTRS		#Translation followed by rotation and scale data
FileVersion 1		#integer
NumSegments 64		#integer
NumFrames 3		#integer
DataFrameRate 30		#integer, data frame rate in this file
EulerRotationOrder ZYX
CalibrationUnits mm
RotationUnits Degrees
GlobalAxisofGravity Y
BoneLengthAxis Y
ScaleFactor 1.00
[SegmentNames&Hierarchy]
#CHILD	PARENT
Pinger_Root GLOBAL
Pelvis Pinger_Root
L_Hip Pelvis
R_Hip Pelvis
Rear_Leg01 Pelvis
Spine1 Pelvis
L_Leg01 L_Hip
L_Leg02 L_Leg01
L_Leg03 L_Leg02
L_Foot L_Leg03
L_Toe1_01 L_Foot
L_Toe2_01 L_Foot
L_Toe3_01 L_Foot
planeAlignerLeft L_Foot
L_Toe1_02 L_Toe1_01
L_Toe1_03 L_Toe1_02
L_Toe2_02 L_Toe2_01
L_Toe2_03 L_Toe2_02
L_Toe3_02 L_Toe3_01
L_Toe3_03 L_Toe3_02
planeLockWeightLeft planeAlignerLeft
R_Leg01 R_Hip
R_Leg02 R_Leg01
R_Leg03 R_Leg02
R_Foot R_Leg03
planeAlignerRight R_Foot
R_Toe1_01 R_Foot
R_Toe2_01 R_Foot
R_Toe3_01 R_Foot
planeLockWeightRight planeAlignerRight
R_Toe1_02 R_Toe1_01
R_Toe1_03 R_Toe1_02
R_Toe2_02 R_Toe2_01
R_Toe2_03 R_Toe2_02
R_Toe3_02 R_Toe3_01
R_Toe3_03 R_Toe3_02
Rear_Leg02 Rear_Leg01
Rear_Leg03 Rear_Leg02
Rear_Leg04 Rear_Leg03
Rear_Foot Rear_Leg04
planeAlignerCenter Rear_Foot
Rear_Toe1_01 Rear_Foot
Rear_Toe2_01 Rear_Foot
Rear_Toe3_01 Rear_Foot
planeLockWeightCenter planeAlignerCenter
Rear_Toe1_02 Rear_Toe1_01
Rear_Toe1_03 Rear_Toe1_02
Rear_Toe2_02 Rear_Toe2_01
Rear_Toe2_03 Rear_Toe2_02
Rear_Toe3_02 Rear_Toe3_01
Rear_Toe3_03 Rear_Toe3_02
Back_Bone Spine1
Head Spine1
Motor_Bone Back_Bone
Ping_Mechanism Back_Bone
BN_LookIK Head
bottomMouth Head
L_Mouth01 Head
L_mouthFront Head
mouthGun Head
R_Mouth01 Head
R_mouthFront Head
TopMouth Head
weapon_bone Head
[BasePosition]
#SegmentName Tx, Ty, Tz, Rx, Ry, Rz, BoneLength
Pinger_Root 0.000000 0.000000 0.000000 -90.000000 0.000000 0.000000 10.000000 
Pelvis 0.000000 0.000000 0.000000 0.000000 0.000000 0.000000 10.000000 
L_Hip 0.000000 0.000000 0.000000 0.000000 0.000000 0.000000 10.000000 
R_Hip 0.000000 0.000000 0.000000 0.000000 0.000000 0.000000 10.000000 
Rear_Leg01 0.000000 0.000000 0.000000 0.000000 0.000000 0.000000 10.000000 
Spine1 0.000000 0.000000 0.000000 0.000000 0.000000 0.000000 10.000000 
L_Leg01 0.000000 0.000000 0.000000 0.000000 0.000000 0.000000 10.000000 
L_Leg02 0.000000 0.000000 0.000000 0.000000 0.000000 0.000000 10.000000 
L_Leg03 0.000000 0.000000 0.000000 0.000000 0.000000 0.000000 10.000000 
L_Foot 0.000000 0.000000 0.000000 0.000000 0.000000 0.000000 10.000000 
L_Toe1_01 0.000000 0.000000 0.000000 0.000000 0.000000 0.000000 10.000000 
L_Toe2_01 0.000000 0.000000 0.000000 0.000000 0.000000 0.000000 10.000000 
L_Toe3_01 0.000000 0.000000 0.000000 0.000000 0.000000 0.000000 10.000000 
planeAlignerLeft 0.000000 0.000000 0.000000 0.000000 0.000000 0.000000 10.000000 
L_Toe1_02 0.000000 0.000000 0.000000 0.000000 0.000000 0.000000 10.000000 
L_Toe1_03 0.000000 0.000000 0.000000 0.000000 0.000000 0.000000 10.000000 
L_Toe2_02 0.000000 0.000000 0.000000 0.000000 0.000000 0.000000 10.000000 
L_Toe2_03 0.000000 0.000000 0.000000 0.000000 0.000000 0.000000 10.000000 
L_Toe3_02 0.000000 0.000000 0.000000 0.000000 0.000000 0.000000 10.000000 
L_Toe3_03 0.000000 0.000000 0.000000 0.000000 0.000000 0.000000 10.000000 
planeLockWeightLeft 0.000000 0.000000 0.000000 0.000000 0.000000 0.000000 10.000000 
R_Leg01 0.000000 0.000000 0.000000 0.000000 0.000000 0.000000 10.000000 
R_Leg02 0.000000 0.000000 0.000000 0.000000 0.000000 0.000000 10.000000 
R_Leg03 0.000000 0.000000 0.000000 0.000000 0.000000 0.000000 10.000000 
R_Foot 0.000000 0.000000 0.000000 0.000000 0.000000 0.000000 10.000000 
planeAlignerRight 0.000000 0.000000 0.000000 0.000000 0.000000 0.000000 10.000000 
R_Toe1_01 0.000000 0.000000 0.000000 0.000000 0.000000 0.000000 10.000000 
R_Toe2_01 0.000000 0.000000 0.000000 0.000000 0.000000 0.000000 10.000000 
R_Toe3_01 0.000000 0.000000 0.000000 0.000000 0.000000 0.000000 10.000000 
planeLockWeightRight 0.000000 0.000000 0.000000 0.000000 0.000000 0.000000 10.000000 
R_Toe1_02 0.000000 0.000000 0.000000 0.000000 0.000000 0.000000 10.000000 
R_Toe1_03 0.000000 0.000000 0.000000 0.000000 0.000000 0.000000 10.000000 
R_Toe2_02 0.000000 0.000000 0.000000 0.000000 0.000000 0.000000 10.000000 
R_Toe2_03 0.000000 0.000000 0.000000 0.000000 0.000000 0.000000 10.000000 
R_Toe3_02 0.000000 0.000000 0.000000 0.000000 0.000000 0.000000 10.000000 
R_Toe3_03 0.000000 0.000000 0.000000 0.000000 0.000000 0.000000 10.000000 
Rear_Leg02 0.000000 0.000000 0.000000 0.000000 0.000000 0.000000 10.000000 
Rear_Leg03 0.000000 0.000000 0.000000 0.000000 0.000000 0.000000 10.000000 
Rear_Leg04 0.000000 0.000000 0.000000 0.000000 0.000000 0.000000 10.000000 
Rear_Foot 0.000000 0.000000 0.000000 0.000000 0.000000 0.000000 10.000000 
planeAlignerCenter 0.000000 0.000000 0.000000 0.000000 0.000000 0.000000 10.000000 
Rear_Toe1_01 0.000000 0.000000 0.000000 0.000000 0.000000 0.000000 10.000000 
Rear_Toe2_01 0.000000 0.000000 0.000000 0.000000 0.000000 0.000000 10.000000 
Rear_Toe3_01 0.000000 0.000000 0.000000 0.000000 0.000000 0.000000 10.000000 
planeLockWeightCenter 0.000000 0.000000 0.000000 0.000000 0.000000 0.000000 10.000000 
Rear_Toe1_02 0.000000 0.000000 0.000000 0.000000 0.000000 0.000000 10.000000 
Rear_Toe1_03 0.000000 0.000000 0.000000 0.000000 0.000000 0.000000 10.000000 
Rear_Toe2_02 0.000000 0.000000 0.000000 0.000000 0.000000 0.000000 10.000000 
Rear_Toe2_03 0.000000 0.000000 0.000000 0.000000 0.000000 0.000000 10.000000 
Rear_Toe3_02 0.000000 0.000000 0.000000 0.000000 0.000000 0.000000 10.000000 
Rear_Toe3_03 0.000000 0.000000 0.000000 0.000000 0.000000 0.000000 10.000000 
Back_Bone 0.000000 0.000000 0.000000 0.000000 0.000000 0.000000 10.000000 
Head 0.000000 0.000000 0.000000 0.000000 0.000000 0.000000 10.000000 
Motor_Bone 0.000000 0.000000 0.000000 0.000000 0.000000 0.000000 10.000000 
Ping_Mechanism 0.000000 0.000000 0.000000 0.000000 0.000000 0.000000 10.000000 
BN_LookIK 0.000000 0.000000 0.000000 0.000000 0.000000 0.000000 10.000000 
bottomMouth 0.000000 0.000000 0.000000 0.000000 0.000000 0.000000 10.000000 
L_Mouth01 0.000000 0.000000 0.000000 0.000000 0.000000 0.000000 10.000000 
L_mouthFront 0.000000 0.000000 0.000000 0.000000 0.000000 0.000000 10.000000 
mouthGun 0.000000 0.000000 0.000000 0.000000 0.000000 0.000000 10.000000 
R_Mouth01 0.000000 0.000000 0.000000 0.000000 0.000000 0.000000 10.000000 
R_mouthFront 0.000000 0.000000 0.000000 0.000000 0.000000 0.000000 10.000000 
TopMouth 0.000000 0.000000 0.000000 0.000000 0.000000 0.000000 10.000000 
weapon_bone 0.000000 0.000000 0.000000 0.000000 0.000000 0.000000 10.000000 
#Beginning of Data. Separated by tabs
#Fr	Tx	Ty	Tz	Rx	Ry	Rz	SF
[Pinger_Root]
65 0.000000 0.000000 0.000000 -0.000072 -0.000020 -31.286249 0.000000
66 0.000000 0.000000 0.000000 -0.000072 -0.000022 -33.282921 0.000000
67 0.000000 0.000000 0.000000 -0.000072 -0.000023 -35.279575 0.000000
[Pelvis]
65 -1744.118774 64.631340 2982.629150 -169.718445 -71.889153 -174.986313 3455.749512
66 -1535.570801 61.727524 2955.658203 -167.386108 -72.952606 -176.526871 3331.321777
67 -1338.002930 93.261482 2935.139648 -162.294128 -74.854935 179.020401 3227.072021
[L_Hip]
65 5.766392 125.831482 872.656799 160.158691 -45.484905 122.312202 881.701050
66 5.766392 125.831482 872.656799 160.158691 -45.484905 122.312202 881.701050
67 5.766392 125.831482 872.656799 160.158691 -45.484905 122.312202 881.701050
[R_Hip]
65 5.765438 125.836372 -872.654907 38.087841 49.812687 125.703735 881.699829
66 5.765438 125.836372 -872.654907 38.087841 49.812687 125.703735 881.699829
67 5.765438 125.836372 -872.654907 38.087841 49.812687 125.703735 881.699829
[Rear_Leg01]
65 -192.298416 -925.602966 -0.001907 137.083527 -1.837542 -141.542374 945.367432
66 -192.298416 -925.602966 -0.001907 135.363693 -3.008500 -141.096436 945.367432
67 -192.298416 -925.602966 -0.001907 134.302841 -3.397180 -141.080780 945.367432
[Spine1]
65 290.604584 5.007505 0.000477 -17.588930 31.412228 -4.455813 290.647736
66 290.604584 5.007505 0.000477 -19.049313 31.818430 -6.489997 290.647736
67 290.604584 5.007505 0.000477 -20.041681 32.024460 -7.985527 290.647736
[L_Leg01]
65 761.932007 -0.002384 -0.069261 72.687294 -11.430317 25.096678 761.932068
66 761.932007 -0.002384 -0.069261 73.270248 -6.189913 23.155256 761.932068
67 761.932007 -0.002384 -0.069261 71.981453 -0.036100 20.134747 761.932068
[L_Leg02]
65 1441.140503 -0.000954 -0.000715 9.295640 -0.043621 169.206345 1441.140503
66 1441.140503 -0.000954 -0.000715 8.600697 -0.042423 176.517899 1441.140503
67 1441.140503 -0.000954 -0.000715 7.737191 -0.060548 -175.096848 1441.140503
[L_Leg03]
65 1686.963989 -0.000715 -0.000954 -0.045162 0.024119 122.563019 1686.963989
66 1686.963989 -0.000715 -0.000954 -0.044010 0.021879 122.376747 1686.963989
67 1686.963989 -0.000715 -0.000954 -0.042850 0.019643 122.190491 1686.963989
[L_Foot]
65 3041.570068 -30.715107 11.297464 -59.155533 17.847534 57.728218 3041.746094
66 3041.570068 -30.715107 11.297464 -61.784492 18.393398 54.238876 3041.746094
67 3041.570068 -30.715107 11.297464 -63.872059 19.139214 51.103004 3041.746094
[L_Toe1_01]
65 -188.216690 -224.732346 -21.137953 89.330788 -2.396121 -161.427643 293.899567
66 -188.216690 -224.732346 -21.137953 89.330788 -2.396121 -161.427643 293.899567
67 -188.216690 -224.732346 -21.137953 89.330788 -2.396121 -161.427643 293.899567
[L_Toe2_01]
65 200.746536 -219.926590 148.838394 -78.791496 -10.652695 -43.374847 332.896027
66 200.746536 -219.926590 148.838394 -78.791496 -10.652695 -43.374847 332.896027
67 200.746536 -219.926590 148.838394 -78.791496 -10.652695 -43.374847 332.896027
[L_Toe3_01]
65 188.832520 -219.859131 -191.078659 -109.186691 26.104874 -48.222931 347.140900
66 188.832520 -219.859131 -191.078659 -109.186691 26.104874 -48.222931 347.140900
67 188.832520 -219.859131 -191.078659 -109.186691 26.104874 -48.222931 347.140900
[planeAlignerLeft]
65 0.812531 -811.448792 -0.314951 0.000000 -90.000000 -90.001900 811.449280
66 0.812531 -811.448792 -0.314951 0.000000 -90.000000 -90.001900 811.449280
67 0.812531 -811.448792 -0.314951 0.000000 -90.000000 -90.001900 811.449280
[L_Toe1_02]
65 413.761139 0.000477 0.000000 0.000203 -25.410625 -0.000182 413.761139
66 413.761139 0.000477 0.000000 0.000203 -25.410625 -0.000182 413.761139
67 413.761139 0.000477 0.000000 0.000203 -25.410625 -0.000182 413.761139
[L_Toe1_03]
65 464.317322 0.000358 -0.000089 0.004933 62.473137 0.004933 464.317322
66 464.317322 0.000358 -0.000089 0.004933 62.473137 0.004933 464.317322
67 464.317322 0.000358 -0.000089 0.004933 62.473137 0.004933 464.317322
[L_Toe2_02]
65 342.235809 -0.000477 0.000238 -0.000101 -70.104240 0.000129 342.235809
66 342.235809 -0.000477 0.000238 -0.000101 -70.104240 0.000129 342.235809
67 342.235809 -0.000477 0.000238 -0.000101 -70.104240 0.000129 342.235809
[L_Toe2_03]
65 420.210846 -0.000715 0.000000 0.016997 82.081528 0.016997 420.210846
66 420.210846 -0.000715 0.000000 0.016997 82.081528 0.016997 420.210846
67 420.210846 -0.000715 0.000000 0.016997 82.081528 0.016997 420.210846
[L_Toe3_02]
65 329.270111 0.000954 0.000000 0.001178 -80.668365 0.001178 329.270111
66 329.270111 0.000954 0.000000 0.001178 -80.668365 0.001178 329.270111
67 329.270111 0.000954 0.000000 0.001178 -80.668365 0.001178 329.270111
[L_Toe3_03]
65 439.137451 -0.001907 0.000954 -179.996323 77.872643 -179.992813 439.137451
66 439.137451 -0.001907 0.000954 -179.996323 77.872643 -179.992813 439.137451
67 439.137451 -0.001907 0.000954 -179.996323 77.872643 -179.992813 439.137451
[planeLockWeightLeft]
65 -0.000954 0.000238 -0.000305 -0.011826 -0.004376 0.005620 0.001029
66 -0.000954 0.000238 -0.000305 -0.011826 -0.004376 0.005620 0.001029
67 -0.000954 0.000238 -0.000305 -0.011826 -0.004376 0.005620 0.001029
[R_Leg01]
65 761.455627 -0.001907 -0.000358 96.922493 -17.429108 31.490885 761.455688
66 761.455627 -0.001907 -0.000358 97.643478 -26.520464 30.072790 761.455688
67 761.455627 -0.001907 -0.000358 98.420242 -35.892220 27.440022 761.455688
[R_Leg02]
65 1441.140625 0.000000 -0.000238 -2.004890 -0.542990 -137.801575 1441.140625
66 1441.140625 0.000000 -0.000238 -2.469603 -0.790524 -151.371017 1441.140625
67 1441.140625 0.000000 -0.000238 -2.863295 -1.140170 -164.939240 1441.140625
[R_Leg03]
65 1686.963989 0.000954 0.001431 0.093319 -0.054704 135.894821 1686.963989
66 1686.963989 0.000954 0.001431 0.104782 -0.062593 138.540054 1686.963989
67 1686.963989 0.000954 0.001431 0.109968 -0.067446 140.590256 1686.963989
[R_Foot]
65 3041.560059 -30.531288 -11.204481 50.832088 -22.798643 46.160805 3041.734131
66 3041.560059 -30.531288 -11.204481 48.551353 -22.270947 49.699856 3041.734131
67 3041.560059 -30.531288 -11.204481 46.251835 -21.610586 53.443623 3041.734131
[planeAlignerRight]
65 -0.635147 -812.270569 -0.364304 0.000000 -89.960434 -90.005180 812.270874
66 -0.635147 -812.270569 -0.364304 0.000000 -89.960434 -90.005180 812.270874
67 -0.635147 -812.270569 -0.364304 0.000000 -89.960434 -90.005180 812.270874
[R_Toe1_01]
65 -188.383347 -224.864899 21.052242 90.478722 3.231926 -161.378860 294.101532
66 -188.383347 -224.864899 21.052242 90.478722 3.231926 -161.378860 294.101532
67 -188.383347 -224.864899 21.052242 90.478722 3.231926 -161.378860 294.101532
[R_Toe2_01]
65 200.637817 -220.002121 -148.787384 -105.368958 18.813929 -49.808262 332.857574
66 200.637817 -220.002121 -148.787384 -105.368958 18.813929 -49.808262 332.857574
67 200.637817 -220.002121 -148.787384 -105.368958 18.813929 -49.808262 332.857574
[R_Toe3_01]
65 188.606735 -220.092957 191.126343 -76.041084 -6.322367 -46.892487 347.192566
66 188.606735 -220.092957 191.126343 -76.041084 -6.322367 -46.892487 347.192566
67 188.606735 -220.092957 191.126343 -76.041084 -6.322367 -46.892487 347.192566
[planeLockWeightRight]
65 -0.000477 0.000000 0.000000 -0.011823 -0.004379 -0.000027 0.000477
66 -0.000477 0.000000 0.000000 -0.011823 -0.004379 -0.000027 0.000477
67 -0.000477 0.000000 0.000000 -0.011823 -0.004379 -0.000027 0.000477
[R_Toe1_02]
65 413.762085 0.000477 -0.000119 0.001401 -23.743965 0.001401 413.762085
66 413.762085 0.000477 -0.000119 0.001401 -23.743965 0.001401 413.762085
67 413.762085 0.000477 -0.000119 0.001401 -23.743965 0.001401 413.762085
[R_Toe1_03]
65 464.317810 0.000000 0.001088 0.008919 74.877419 0.008919 464.317810
66 464.317810 0.000000 0.001088 0.008919 74.877419 0.008919 464.317810
67 464.317810 0.000000 0.001088 0.008919 74.877419 0.008919 464.317810
[R_Toe2_02]
65 342.234741 -0.000954 0.000238 0.001188 -72.307030 0.001188 342.234741
66 342.234741 -0.000954 0.000238 0.001188 -72.306969 0.001188 342.234741
67 342.234741 -0.000954 0.000238 0.001188 -72.306938 0.001188 342.234741
[R_Toe2_03]
65 420.210846 0.000715 -0.000268 0.028208 85.230911 0.028208 420.210846
66 420.210846 0.000715 -0.000268 0.028208 85.230873 0.028208 420.210846
67 420.210846 0.000715 -0.000268 0.028208 85.230827 0.028208 420.210846
[R_Toe3_02]
65 329.270355 -0.000477 -0.000954 0.001177 -80.843628 0.001177 329.270355
66 329.270355 -0.000477 -0.000954 0.001177 -80.843628 0.001177 329.270355
67 329.270355 -0.000477 -0.000954 0.001177 -80.843628 0.001177 329.270355
[R_Toe3_03]
65 439.137939 0.000238 0.001431 -179.996658 77.076912 -179.993134 439.137939
66 439.137939 0.000238 0.001431 -179.996658 77.076927 -179.993134 439.137939
67 439.137939 0.000238 0.001431 -179.996658 77.077011 -179.993134 439.137939
[Rear_Leg02]
65 1162.777710 -0.029802 0.005960 0.019918 0.115621 -152.405853 1162.777710
66 1162.777710 -0.029802 0.005960 0.015439 0.116304 -156.831833 1162.777710
67 1162.777710 -0.029802 0.005960 0.012781 0.116626 -159.446136 1162.777710
[Rear_Leg03]
65 607.192505 -0.013351 -0.073195 0.010244 -0.005587 73.575027 607.192505
66 607.192505 -0.013351 -0.073195 0.010189 -0.005687 74.690697 607.192505
67 607.192505 -0.013351 -0.073195 0.010157 -0.005743 75.326576 607.192505
[Rear_Leg04]
65 995.874512 -0.020504 -0.011921 -0.045104 -0.018275 79.304161 995.874573
66 995.874512 -0.020504 -0.011921 -0.045590 -0.017028 82.455902 995.874573
67 995.874512 -0.020504 -0.011921 -0.045857 -0.016293 84.297020 995.874573
[Rear_Foot]
65 3096.176270 -0.067472 -0.041425 -179.946274 76.708282 29.443235 3096.176270
66 3096.176270 -0.067472 -0.041425 -179.870972 73.464005 28.649878 3096.176270
67 3096.176270 -0.067472 -0.041425 -179.885773 70.135666 27.629072 3096.176270
[planeAlignerCenter]
65 0.350077 0.966311 -838.790894 0.000009 0.000003 -179.999985 838.791565
66 0.350077 0.966311 -838.790894 0.000009 0.000003 -179.999985 838.791565
67 0.350077 0.966311 -838.790894 0.000009 0.000003 -179.999985 838.791565
[Rear_Toe1_01]
65 0.653352 83.966492 -371.173737 0.292825 41.923714 90.411346 380.553192
66 0.653352 83.966492 -371.173737 0.292868 41.923672 90.411362 380.553192
67 0.653352 83.966492 -371.173737 0.292910 41.923649 90.411400 380.553192
[Rear_Toe2_01]
65 178.200760 -294.826019 -362.060547 -2.183820 34.543430 -64.361809 499.765686
66 178.200760 -294.826019 -362.060547 -2.183789 34.543392 -64.361786 499.765686
67 178.200760 -294.826019 -362.060547 -2.183762 34.543354 -64.361778 499.765686
[Rear_Toe3_01]
65 -153.359680 -308.780914 -362.060852 3.870838 33.514248 -112.318695 499.952881
66 -153.359680 -308.780914 -362.060852 3.870836 33.514236 -112.318695 499.952881
67 -153.359680 -308.780914 -362.060852 3.870838 33.514248 -112.318695 499.952881
[planeLockWeightCenter]
65 -0.000062 0.000238 0.000000 -0.011814 -0.004373 -0.000015 0.000246
66 -0.000062 0.000238 0.000000 -0.011814 -0.004373 -0.000015 0.000246
67 -0.000062 0.000238 0.000000 -0.011814 -0.004373 -0.000015 0.000246
[Rear_Toe1_02]
65 379.707825 0.194073 0.000477 -0.000242 -31.673855 0.006934 379.707855
66 379.707825 0.194073 0.000477 -0.000242 -31.673897 0.006934 379.707855
67 379.707825 0.194073 0.000477 -0.000242 -31.673948 0.006934 379.707855
[Rear_Toe1_03]
65 500.129700 0.165701 0.000119 -0.000106 51.876720 0.007293 500.129761
66 500.129700 0.165701 0.000119 -0.000106 51.876865 0.007293 500.129761
67 500.129700 0.165701 0.000119 -0.000106 51.877010 0.007293 500.129761
[Rear_Toe2_02]
65 340.494507 0.000238 -0.000954 0.001192 -69.854523 0.001192 340.494507
66 340.494507 0.000238 -0.000954 0.001192 -69.854523 0.001192 340.494507
67 340.494507 0.000238 -0.000954 0.001192 -69.854523 0.001192 340.494507
[Rear_Toe2_03]
65 433.103577 0.000000 0.000238 0.006694 69.804291 0.006694 433.103546
66 433.103577 0.000000 0.000238 0.006694 69.804283 0.006694 433.103546
67 433.103577 0.000000 0.000238 0.006694 69.804291 0.006694 433.103546
[Rear_Toe3_02]
65 340.494141 -0.000358 -0.000477 0.008285 -67.268761 -0.009458 340.494171
66 340.494141 -0.000358 -0.000477 0.008285 -67.268761 -0.009458 340.494171
67 340.494141 -0.000358 -0.000477 0.008285 -67.268761 -0.009458 340.494171
[Rear_Toe3_03]
65 433.103577 0.001431 -0.000238 -0.000971 65.949791 -0.004546 433.103546
66 433.103577 0.001431 -0.000238 -0.000971 65.949837 -0.004546 433.103546
67 433.103577 0.001431 -0.000238 -0.000971 65.949905 -0.004546 433.103546
[Back_Bone]
65 1312.175781 -701.934692 0.000954 0.000023 -0.000007 -85.606667 1488.125488
66 1312.175781 -701.934692 0.000954 0.000023 -0.000007 -85.606667 1488.125488
67 1312.175781 -701.934692 0.000954 0.000023 -0.000007 -85.606667 1488.125488
[Head]
65 1406.159424 809.709290 0.001431 0.001912 -1.478027 3.815780 1622.625488
66 1406.159424 809.709290 0.001431 0.000867 -1.476931 4.796168 1622.625488
67 1406.159424 809.709290 0.001431 -0.000159 -1.475818 5.776627 1622.625488
[Motor_Bone]
65 1158.364380 -417.834747 0.000477 -4.268488 -1.697736 -105.700119 1231.419434
66 1158.364380 -417.834747 0.000477 -3.881639 -1.544211 -105.728859 1231.419434
67 1158.364380 -417.834747 0.000477 -3.494882 -1.390491 -105.756546 1231.419434
[Ping_Mechanism]
65 1233.949585 -432.850525 -7.551356 0.000103 -0.000053 82.120995 1307.688110
66 1233.877319 -432.049927 -7.826581 0.000103 -0.000053 82.120995 1307.356689
67 1233.805054 -431.249390 -8.101806 0.000103 -0.000053 82.120995 1307.025879
[BN_LookIK]
65 193.241119 1380.371704 -0.002861 0.000000 89.965736 -31.038179 1393.832153
66 193.241119 1380.371704 -0.002861 0.000000 89.965736 -31.038179 1393.832153
67 193.241119 1380.371704 -0.002861 0.000000 89.965736 -31.038179 1393.832153
[bottomMouth]
65 -435.092926 615.759399 -0.000954 -0.000022 0.000016 73.527184 753.966492
66 -435.092926 615.759399 -0.000954 -0.000022 0.000016 73.527184 753.966492
67 -435.092926 615.759399 -0.000954 -0.000022 0.000016 73.527184 753.966492
[L_Mouth01]
65 554.440979 7.658243 838.222046 150.204178 23.759130 109.605339 1005.027161
66 554.440979 7.658243 838.222046 150.204178 23.759130 109.605339 1005.027161
67 554.440979 7.658243 838.222046 150.204178 23.759130 109.605339 1005.027161
[L_mouthFront]
65 551.629089 934.514771 339.150421 0.000081 2.804060 79.119301 1136.941284
66 551.629089 934.514771 339.150421 0.000081 2.804060 79.119301 1136.941284
67 551.629089 934.514771 339.150421 0.000081 2.804060 79.119301 1136.941284
[mouthGun]
65 55.332661 1627.420898 0.000000 0.000023 0.000009 -11.038128 1628.361328
66 55.332661 1627.420898 0.000000 0.000023 0.000009 -11.038128 1628.361328
67 55.332661 1627.420898 0.000000 0.000023 0.000009 -11.038128 1628.361328
[R_Mouth01]
65 554.442383 7.659197 -838.223938 29.795891 -23.759109 109.605331 1005.029541
66 554.442383 7.659197 -838.223938 29.795891 -23.759109 109.605331 1005.029541
67 554.442383 7.659197 -838.223938 29.795891 -23.759109 109.605331 1005.029541
[R_mouthFront]
65 551.629089 934.514282 -339.151367 0.000029 -2.803930 79.119133 1136.941162
66 551.629089 934.514282 -339.151367 0.000029 -2.803930 79.119133 1136.941162
67 551.629089 934.514282 -339.151367 0.000029 -2.803930 79.119133 1136.941162
[TopMouth]
65 461.269867 -56.106091 -0.008583 -0.000059 -0.000268 92.025169 464.669525
66 461.269867 -56.106091 -0.008583 -0.000059 -0.000268 92.025169 464.669525
67 461.269867 -56.106091 -0.008583 -0.000059 -0.000268 92.025169 464.669525
[weapon_bone]
65 -987.239868 1448.372803 0.001431 0.000000 89.965736 -31.038221 1752.833740
66 -987.239868 1448.372803 0.001431 0.000000 89.965736 -31.038221 1752.833740
67 -987.239868 1448.372803 0.001431 0.000000 89.965736 -31.038221 1752.833740
